<?xml version="1.0" encoding="UTF-8"?>
<svg width="52px" height="52px" viewBox="0 0 52 52" version="1.1" xmlns="http://www.w3.org/2000/svg" xmlns:xlink="http://www.w3.org/1999/xlink">
    <!-- Generator: sketchtool 52.6 (67491) - http://www.bohemiancoding.com/sketch -->
    <title>D45ADF8D-2F2D-4482-85C8-D6DD99FBF4A0@3x</title>
    <desc>Created with sketchtool.</desc>
    <g id="atlas-product-page" stroke="none" stroke-width="1" fill="none" fill-rule="evenodd" stroke-linecap="round" stroke-linejoin="round">
        <g id="1901-atlas-6" transform="translate(-1099.000000, -2510.000000)" stroke-width="1.5">
            <g id="Why" transform="translate(0.000000, 1823.000000)">
                <g id="6" transform="translate(943.000000, 648.000000)">
                    <g id="cog-approved-1" transform="translate(157.000000, 40.000000)">
                        <polyline id="Path" stroke="#116149" points="49.9565972 0.0455729167 25 30.4275174 16.3194444 20.6618924"></polyline>
                        <path d="M42.109375,17.9144965 C42.5468944,18.9770759 43.4143899,19.8043512 44.4965278,20.1909722 L47.2417535,21.1675347 C48.8650829,21.7437065 49.9497286,23.2796219 49.9497286,25.0021701 C49.9497286,26.7247184 48.8650829,28.2606338 47.2417535,28.8368056 L44.4965278,29.8133681 C43.4117354,30.1986848 42.5410652,31.0256984 42.100503,32.0892529 C41.6599407,33.1528075 41.6907652,34.3532524 42.1853299,35.3927951 L43.4461806,38.0208333 C44.1922571,39.5769388 43.8750009,41.4344706 42.6547358,42.6547358 C41.4344706,43.8750009 39.5769388,44.1922571 38.0208333,43.4461806 L35.3884549,42.1961806 C34.3489121,41.7016159 33.1484672,41.6707914 32.0849126,42.1113537 C31.0213581,42.5519159 30.1943445,43.4225861 29.8090278,44.5073785 L28.8324653,47.2526042 C28.2562935,48.8759336 26.7203781,49.9605793 24.9978299,49.9605793 C23.2752816,49.9605793 21.7393662,48.8759336 21.1631944,47.2526042 L20.1866319,44.5073785 C19.8013152,43.4225861 18.9743016,42.5519159 17.9107471,42.1113537 C16.8471925,41.6707914 15.6467476,41.7016159 14.6072049,42.1961806 L11.9791667,43.4461806 C10.4230612,44.1922571 8.56552942,43.8750009 7.34526424,42.6547358 C6.12499906,41.4344706 5.80774294,39.5769388 6.55381944,38.0208333 L7.80381944,35.3884549 C8.29838411,34.3489121 8.32920861,33.1484672 7.88864634,32.0849126 C7.44808407,31.0213581 6.57741386,30.1943445 5.49262153,29.8090278 L2.74739583,28.8324653 C1.12406638,28.2562935 0.0394206815,26.7203781 0.0394206815,24.9978299 C0.0394206815,23.2752816 1.12406638,21.7393662 2.74739583,21.1631944 L5.49262153,20.1866319 C6.57664471,19.801618 7.44690163,18.9755195 7.88779314,17.9129958 C8.32868465,16.8504721 8.29896231,15.6509295 7.80598958,14.6115451 L6.55381944,11.9791667 C5.80774294,10.4230612 6.12499906,8.56552942 7.34526424,7.34526424 C8.56552942,6.12499906 10.4230612,5.80774294 11.9791667,6.55381944 L14.6115451,7.80381944 C15.6502996,8.29782354 16.8496668,8.32884905 17.9125729,7.88921121 C18.9754791,7.44957336 19.8025047,6.58039398 20.1888021,5.49696181 L21.1653646,2.75173611 C21.7415363,1.12840666 23.2774518,0.0437609593 25,0.0437609593 C26.7225482,0.0437609593 28.2584637,1.12840666 28.8346354,2.75173611 L29.8111979,5.49696181 C30.1978189,6.57909969 31.0250942,7.44659523 32.0876736,7.88411458" id="Path" stroke="#13AA52"></path>
                    </g>
                </g>
            </g>
        </g>
    </g>
</svg>