<?xml version="1.0" encoding="UTF-8"?>
<svg width="80px" height="80px" viewBox="0 0 80 80" version="1.1" xmlns="http://www.w3.org/2000/svg" xmlns:xlink="http://www.w3.org/1999/xlink">
    <!-- Generator: sketchtool 51.2 (57519) - http://www.bohemiancoding.com/sketch -->
    <title>88B85D75-68DE-42AC-8086-8F3F3D52E636@1x</title>
    <desc>Created with sketchtool.</desc>
    <defs></defs>
    <g id="Page-1" stroke="none" stroke-width="1" fill="none" fill-rule="evenodd">
        <g id="1807-migration-microsite-4-1" transform="translate(-993.000000, -1408.000000)">
            <g id="Why" transform="translate(135.000000, 971.000000)">
                <g id="4" transform="translate(625.000000, 437.000000)">
                    <g id="Anomalies" transform="translate(233.000000, 0.000000)">
                        <g id="Group" transform="translate(36.666667, 36.666667)">
                            <polygon id="Shape" stroke="#13AA52" stroke-width="2" stroke-linecap="round" stroke-linejoin="round" points="1.66666667 41.6666667 41.6666667 41.6666667 21.6666667 1.66666667"></polygon>
                            <path d="M21.6666667,18.3333333 L21.6666667,30" id="Shape" stroke="#116149" stroke-width="2" stroke-linecap="round" stroke-linejoin="round"></path>
                            <path d="M21.6666667,33.3333333 C20.7466667,33.3333333 20,34.08 20,35 C20,35.92 20.7466667,36.6666667 21.6666667,36.6666667 C22.5866667,36.6666667 23.3333333,35.92 23.3333333,35 C23.3333333,34.08 22.5866667,33.3333333 21.6666667,33.3333333 Z" id="Shape" fill="#116149" fill-rule="nonzero"></path>
                        </g>
                        <path d="M1.66666667,15 L68.3333333,15" id="Shape" stroke="#13AA52" stroke-width="2" stroke-linecap="round" stroke-linejoin="round"></path>
                        <path d="M11.6666667,6.66666667 C10.7466667,6.66666667 10,7.41333333 10,8.33333333 C10,9.25333333 10.7466667,10 11.6666667,10 C12.5866667,10 13.3333333,9.25333333 13.3333333,8.33333333 C13.3333333,7.41333333 12.5866667,6.66666667 11.6666667,6.66666667 Z" id="Shape" fill="#13AA52" fill-rule="nonzero"></path>
                        <path d="M18.3333333,6.66666667 C17.4133333,6.66666667 16.6666667,7.41333333 16.6666667,8.33333333 C16.6666667,9.25333333 17.4133333,10 18.3333333,10 C19.2533333,10 20,9.25333333 20,8.33333333 C20,7.41333333 19.2533333,6.66666667 18.3333333,6.66666667 Z" id="Shape" fill="#13AA52" fill-rule="nonzero"></path>
                        <path d="M25,6.66666667 C24.08,6.66666667 23.3333333,7.41333333 23.3333333,8.33333333 C23.3333333,9.25333333 24.08,10 25,10 C25.92,10 26.6666667,9.25333333 26.6666667,8.33333333 C26.6666667,7.41333333 25.92,6.66666667 25,6.66666667 Z" id="Shape" fill="#13AA52" fill-rule="nonzero"></path>
                        <path d="M31.6666667,55 L8.33333333,55 C4.65333333,55 1.66666667,52.0133333 1.66666667,48.3333333 L1.66666667,8.33333333 C1.66666667,4.65333333 4.65333333,1.66666667 8.33333333,1.66666667 L61.6666667,1.66666667 C65.35,1.66666667 68.3333333,4.65333333 68.3333333,8.33333333 L68.3333333,35" id="Shape" stroke="#13AA52" stroke-width="2" stroke-linecap="round" stroke-linejoin="round"></path>
                        <g id="Group" transform="translate(8.888889, 22.222222)" stroke="#116149" stroke-linejoin="round" stroke-width="2">
                            <path d="M22.1721778,4.07782222 C27.0537333,8.95937778 27.0537333,16.8739333 22.1721778,21.7554889 C17.2906222,26.6370444 9.37606667,26.6370444 4.49451111,21.7554889 C-0.387044444,16.8739333 -0.387044444,8.95937778 4.49451111,4.07782222 C9.37606667,-0.803733333 17.2906222,-0.803733333 22.1721778,4.07782222" id="Shape" stroke-linecap="round"></path>
                            <polyline id="Shape" stroke-linecap="round" points="20.3858222 2.59666667 13.3333333 12.9166667 21.3458222 22.5091778"></polyline>
                            <path d="M13.3333333,12.9166667 L0.833333333,12.9166667" id="Shape" stroke-linecap="round"></path>
                            <path d="M34.4444444,1.66666667 L52.2222222,1.66666667" id="Shape"></path>
                            <path d="M34.4444444,11.6666667 L43.3333333,11.6666667" id="Shape"></path>
                        </g>
                        <polygon id="Shape" points="0 0 80 0 80 80 0 80"></polygon>
                    </g>
                </g>
            </g>
        </g>
    </g>
</svg>