<?xml version="1.0" encoding="UTF-8"?>
<svg width="50px" height="50px" viewBox="0 0 50 50" version="1.1" xmlns="http://www.w3.org/2000/svg" xmlns:xlink="http://www.w3.org/1999/xlink">
    <!-- Generator: sketchtool 52.6 (67491) - http://www.bohemiancoding.com/sketch -->
    <title>8645D06C-DCCD-4A42-B70E-5831D5C63E4D@3x</title>
    <desc>Created with sketchtool.</desc>
    <g id="atlas-product-page" stroke="none" stroke-width="1" fill="none" fill-rule="evenodd" stroke-linecap="round" stroke-linejoin="round">
        <g id="1901-atlas-6" transform="translate(-292.000000, -2132.000000)" stroke-width="1.5">
            <g id="Why" transform="translate(0.000000, 1823.000000)">
                <g id="1" transform="translate(130.000000, 269.000000)">
                    <g id="network-pin" transform="translate(162.000000, 40.000000)">
                        <path d="M4.16875,36.4916667 L25.24375,36.4916667" id="Path" stroke="#13AA52"></path>
                        <path d="M5.44791667,11.4916667 L44.9979167,11.4916667" id="Path" stroke="#13AA52"></path>
                        <path d="M26.25625,23.9916667 L1.27916667,23.9916667" id="Path" stroke="#13AA52"></path>
                        <path d="M23.91875,48.9583333 C11.4171855,48.268087 1.55529039,38.0680647 1.2867238,25.5503402 C1.0181572,13.0326157 10.4334977,2.41900202 22.8939535,1.19319792 C35.3544093,-0.0326061767 46.6574823,8.5428223 48.8333333,20.8729167" id="Path" stroke="#13AA52"></path>
                        <path d="M23.6916667,1.12916667 C11.1916667,14.6708333 11.41875,32.2916667 23.91875,48.9583333" id="Path" stroke="#13AA52"></path>
                        <path d="M26.7354167,1.12916667 C31.4025526,5.98967536 34.4999071,12.1415572 35.625,18.7854167" id="Path" stroke="#13AA52"></path>
                        <circle id="Oval" stroke="#116149" cx="38.5416667" cy="31.8645833" r="3.125"></circle>
                        <path d="M47.9166667,31.875 C47.9166667,38.125 38.5416667,47.5 38.5416667,47.5 C38.5416667,47.5 29.1666667,38.125 29.1666667,31.875 C29.1666667,26.6973305 33.3639971,22.5 38.5416667,22.5 C43.7193362,22.5 47.9166667,26.6973305 47.9166667,31.875 Z" id="Path" stroke="#116149"></path>
                    </g>
                </g>
            </g>
        </g>
    </g>
</svg>