<?xml version="1.0" encoding="UTF-8"?>
<svg width="77px" height="77px" viewBox="0 0 77 77" version="1.1" xmlns="http://www.w3.org/2000/svg" xmlns:xlink="http://www.w3.org/1999/xlink">
    <!-- Generator: sketchtool 50.2 (55047) - http://www.bohemiancoding.com/sketch -->
    <title>09C1E6AF-DD78-4D67-A3CF-28E99A34B377@1x</title>
    <desc>Created with sketchtool.</desc>
    <defs></defs>
    <g id="Page-1" stroke="none" stroke-width="1" fill="none" fill-rule="evenodd">
        <g id="1806---Compass---2" transform="translate(-680.000000, -833.000000)">
            <g id="Features" transform="translate(171.000000, 813.000000)">
                <g id="2" transform="translate(404.000000, 20.000000)">
                    <g id="Modify" transform="translate(105.000000, 0.000000)">
                        <g id="Outline_Icons" transform="translate(1.000000, 1.000000)" stroke-linecap="round" stroke-linejoin="round" stroke-width="2">
                            <g id="Group">
                                <polyline id="Shape" stroke="#116149" points="48.6 0.6 51.8 0.6 51.8 3.8"></polyline>
                                <polyline id="Shape" stroke="#116149" points="3.8 0.6 0.6 0.6 0.6 3.8"></polyline>
                                <path d="M51.8,10.2 L51.8,13.4" id="Shape" stroke="#13AA52"></path>
                                <path d="M39,0.6 L42.2,0.6" id="Shape" stroke="#13AA52"></path>
                                <path d="M29.4,0.6 L32.6,0.6" id="Shape" stroke="#13AA52"></path>
                                <path d="M19.8,0.6 L23,0.6" id="Shape" stroke="#13AA52"></path>
                                <path d="M10.2,0.6 L13.4,0.6" id="Shape" stroke="#13AA52"></path>
                                <path d="M39,51.8 L42.2,51.8" id="Shape" stroke="#13AA52"></path>
                                <path d="M29.4,51.8 L32.6,51.8" id="Shape" stroke="#13AA52"></path>
                                <path d="M19.8,51.8 L23,51.8" id="Shape" stroke="#13AA52"></path>
                                <path d="M10.2,51.8 L13.4,51.8" id="Shape" stroke="#13AA52"></path>
                                <polyline id="Shape" stroke="#116149" points="3.8 51.8 0.6 51.8 0.6 48.6"></polyline>
                                <path d="M0.6,42.2 L0.6,39" id="Shape" stroke="#13AA52"></path>
                                <path d="M0.6,32.6 L0.6,29.4" id="Shape" stroke="#13AA52"></path>
                                <path d="M0.6,23 L0.6,19.8" id="Shape" stroke="#13AA52"></path>
                                <path d="M51.8,23 L51.8,19.8" id="Shape" stroke="#13AA52"></path>
                                <path d="M0.6,13.4 L0.6,10.2" id="Shape" stroke="#13AA52"></path>
                                <polyline id="Shape" stroke="#116149" points="26.2 74.2 23 74.2 23 71"></polyline>
                                <polyline id="Shape" stroke="#116149" points="71 74.2 74.2 74.2 74.2 71"></polyline>
                                <path d="M23,64.6 L23,61.4" id="Shape" stroke="#13AA52"></path>
                                <path d="M35.8,74.2 L32.6,74.2" id="Shape" stroke="#13AA52"></path>
                                <path d="M45.4,74.2 L42.2,74.2" id="Shape" stroke="#13AA52"></path>
                                <path d="M55,74.2 L51.8,74.2" id="Shape" stroke="#13AA52"></path>
                                <path d="M64.6,74.2 L61.4,74.2" id="Shape" stroke="#13AA52"></path>
                                <path d="M55,23 L51.8,23" id="Shape" stroke="#13AA52"></path>
                                <path d="M64.6,23 L61.4,23" id="Shape" stroke="#13AA52"></path>
                                <polyline id="Shape" stroke="#116149" points="71 23 74.2 23 74.2 26.2"></polyline>
                                <path d="M74.2,32.6 L74.2,35.8" id="Shape" stroke="#13AA52"></path>
                                <path d="M74.2,42.2 L74.2,45.4" id="Shape" stroke="#13AA52"></path>
                                <path d="M74.2,51.8 L74.2,55" id="Shape" stroke="#13AA52"></path>
                                <path d="M23,51.8 L23,55" id="Shape" stroke="#13AA52"></path>
                                <path d="M74.2,61.4 L74.2,64.6" id="Shape" stroke="#13AA52"></path>
                                <rect id="Rectangle-path" stroke="#116149" x="23" y="23" width="28.8" height="28.8"></rect>
                            </g>
                        </g>
                        <g id="Invisible_Shape">
                            <rect id="Rectangle-path" x="0" y="0" width="76.8" height="76.8"></rect>
                        </g>
                    </g>
                </g>
            </g>
        </g>
    </g>
</svg>