<?xml version="1.0" encoding="UTF-8"?>
<svg width="80px" height="63px" viewBox="0 0 80 63" version="1.1" xmlns="http://www.w3.org/2000/svg" xmlns:xlink="http://www.w3.org/1999/xlink">
    <!-- Generator: sketchtool 50.2 (55047) - http://www.bohemiancoding.com/sketch -->
    <title>0F1FE82D-432B-490A-97BA-1DBB01795D00@1x</title>
    <desc>Created with sketchtool.</desc>
    <defs></defs>
    <g id="Page-1" stroke="none" stroke-width="1" fill="none" fill-rule="evenodd">
        <g id="1806---Compass---2" transform="translate(-276.000000, -838.000000)">
            <g id="Features" transform="translate(171.000000, 813.000000)">
                <g id="1" transform="translate(0.000000, 18.000000)">
                    <g id="Schema-Visualization" transform="translate(105.000000, 0.000000)">
                        <g id="Outline_Icons" transform="translate(1.000000, 7.666667)" stroke-linejoin="round" stroke-width="2">
                            <g id="Group">
                                <path d="M77.3333333,54 C77.3333333,57.68 74.35,60.6666667 70.6666667,60.6666667 L7.33333333,60.6666667 C3.65333333,60.6666667 0.666666667,57.68 0.666666667,54 L0.666666667,7.33333333 C0.666666667,3.65333333 3.65333333,0.666666667 7.33333333,0.666666667 L70.6666667,0.666666667 C74.35,0.666666667 77.3333333,3.65333333 77.3333333,7.33333333 L77.3333333,54 Z" id="Shape" stroke="#13AA52" stroke-linecap="round"></path>
                                <path d="M0.666666667,17.3333333 L77.3333333,17.3333333" id="Shape" stroke="#13AA52" stroke-linecap="round"></path>
                                <circle id="Oval" stroke="#13AA52" stroke-linecap="round" cx="12.3333333" cy="9" r="1.66666667"></circle>
                                <circle id="Oval" stroke="#13AA52" stroke-linecap="round" cx="22.3333333" cy="9" r="1.66666667"></circle>
                                <circle id="Oval" stroke="#13AA52" stroke-linecap="round" cx="32.3333333" cy="9" r="1.66666667"></circle>
                                <rect id="Rectangle-path" stroke="#116149" stroke-linecap="round" x="14" y="44" width="10" height="10"></rect>
                                <rect id="Rectangle-path" stroke="#116149" stroke-linecap="round" x="34" y="24" width="10" height="10"></rect>
                                <rect id="Rectangle-path" stroke="#116149" stroke-linecap="round" x="34" y="44" width="10" height="10"></rect>
                                <rect id="Rectangle-path" stroke="#116149" stroke-linecap="round" x="54" y="44" width="10" height="10"></rect>
                                <polyline id="Shape" stroke="#116149" stroke-linecap="round" points="44 30.6666667 57.3333333 30.6666667 57.3333333 44"></polyline>
                                <polyline id="Shape" stroke="#116149" stroke-linecap="round" points="34 30.6666667 20.6666667 30.6666667 20.6666667 44"></polyline>
                                <path d="M37.3333333,34 L37.3333333,44" id="Shape" stroke="#116149"></path>
                            </g>
                        </g>
                        <g id="Invisible_Shape">
                            <rect id="Rectangle-path" x="0" y="0" width="80" height="80"></rect>
                        </g>
                    </g>
                </g>
            </g>
        </g>
    </g>
</svg>