<?xml version="1.0" encoding="UTF-8"?>
<svg width="50px" height="50px" viewBox="0 0 50 50" version="1.1" xmlns="http://www.w3.org/2000/svg" xmlns:xlink="http://www.w3.org/1999/xlink">
    <!-- Generator: sketchtool 52.6 (67491) - http://www.bohemiancoding.com/sketch -->
    <title>E41F36C8-6658-43AD-BF2C-B42196484C91@3x</title>
    <desc>Created with sketchtool.</desc>
    <g id="atlas-product-page" stroke="none" stroke-width="1" fill="none" fill-rule="evenodd" stroke-linecap="round" stroke-linejoin="round">
        <g id="1901-atlas-6" transform="translate(-696.000000, -2157.000000)" stroke-width="1.5">
            <g id="Why" transform="translate(0.000000, 1823.000000)">
                <g id="3" transform="translate(539.000000, 294.000000)">
                    <g id="lock-shield" transform="translate(157.000000, 40.000000)">
                        <path d="M46.875,1.10416667 C48.0255932,1.10416667 48.9583333,2.03690677 48.9583333,3.1875 L48.9416667,18.9583333 C49.0365858,33.327062 39.1289519,45.8296555 25.11875,49.0208333 C11.0825657,45.9569672 1.06294737,33.5478886 1.025,19.18125 L1.05208333,3.19791667 C1.05208333,2.04732344 1.98482344,1.11458333 3.13541667,1.11458333 L46.875,1.10416667 Z" id="Path" stroke="#13AA52"></path>
                        <path d="M34.4083333,30.2291667 C34.4111051,30.7835036 34.1928358,31.3160876 33.8018342,31.7090442 C33.4108326,32.1020008 32.8793439,32.3229236 32.325,32.3229167 L17.7416667,32.3875 C16.5951292,32.3875143 15.664066,31.4611065 15.6583333,30.3145833 L15.6020833,18.0770833 C15.6020833,16.9264901 16.5348234,15.99375 17.6854167,15.99375 L32.26875,15.9291667 C33.4152875,15.9291523 34.3463506,16.8555602 34.3520833,18.0020833 L34.4083333,30.2291667 Z" id="Path" stroke="#116149"></path>
                        <path d="M24.9291667,7.35416667 C23.271558,7.36188412 21.6849084,8.02777728 20.518272,9.20535339 C19.3516355,10.3829295 18.7005798,11.9757248 18.7083333,13.6333333 L18.7082649,15.9791667 L31.2083333,15.9229167 L31.2083333,13.5770833 C31.2011669,11.9191128 30.5355165,10.3319283 29.3578805,9.16484182 C28.1802445,7.9977553 26.5871345,7.34641391 24.9291667,7.35416667 Z" id="Path" stroke="#116149"></path>
                        <circle id="Oval" stroke="#13AA52" cx="25.00625" cy="24.1520833" r="2.60416667"></circle>
                    </g>
                </g>
            </g>
        </g>
    </g>
</svg>