<?xml version="1.0" encoding="UTF-8"?>
<svg width="52px" height="46px" viewBox="0 0 52 46" version="1.1" xmlns="http://www.w3.org/2000/svg" xmlns:xlink="http://www.w3.org/1999/xlink">
    <!-- Generator: sketchtool 52.6 (67491) - http://www.bohemiancoding.com/sketch -->
    <title>526ABD6F-EDD3-4EE8-9EE0-CD369EEB5B1E</title>
    <desc>Created with sketchtool.</desc>
    <g id="atlas-product-page" stroke="none" stroke-width="1" fill="none" fill-rule="evenodd" stroke-linecap="round" stroke-linejoin="round">
        <g id="1901-atlas-6" transform="translate(-291.000000, -2516.000000)" stroke-width="1.5">
            <g id="Why" transform="translate(0.000000, 1823.000000)">
                <g id="2" transform="translate(135.000000, 648.000000)">
                    <g id="Backup" transform="translate(157.000000, 46.000000)">
                        <polyline id="Shape" stroke="#116149" transform="translate(19.534722, 17.187500) scale(-1, 1) translate(-19.534722, -17.187500) " points="22.1388889 14.5833333 22.1388889 19.7916667 16.9305556 19.7916667"></polyline>
                        <path d="M16.9305556,19.7916667 C18.2159722,16.1541667 22.2243056,13.5416667 26.3055556,13.5416667 C30.3868056,13.5416667 34.3951389,16.1541667 35.6805556,19.7916667" id="Shape" stroke="#116149" transform="translate(26.305556, 16.666667) scale(-1, 1) translate(-26.305556, -16.666667) "></path>
                        <polyline id="Shape" stroke="#116149" transform="translate(33.076389, 28.645833) scale(-1, 1) translate(-33.076389, -28.645833) " points="30.4722222 31.25 30.4722222 26.0416667 35.6805556 26.0416667"></polyline>
                        <path d="M35.6805556,26.0416667 C34.3951389,29.6833333 30.3868056,32.2916667 26.3055556,32.2916667 C22.2243056,32.2916667 18.2159722,29.6833333 16.9305556,26.0416667" id="Shape" stroke="#116149" transform="translate(26.305556, 29.166667) scale(-1, 1) translate(-26.305556, -29.166667) "></path>
                        <path d="M6.71866115,1.38888889 C5.45788317,1.82350906 4.581481,2.95489138 4.48966141,4.26560122 L4.48966141,17.4785526 C4.54981907,19.9766847 2.54055311,22.0501591 0,22.1111803 L0,22.2606199 C2.53802016,22.3185277 4.5485526,24.3888889 4.48966141,26.8845302 C4.48966141,26.8870209 4.48966141,26.8901342 4.48966141,26.8932475 L4.48966141,40.0999723 C4.581481,41.4106822 5.45788317,42.5420645 6.71866115,42.9766847" id="Stroke-1" stroke="#13AA52"></path>
                        <path d="M43.0555556,1.38888889 C44.3169668,1.82226373 45.1940022,2.95426871 45.2845553,4.26560122 L45.2845553,17.4785526 C45.2275638,19.97793 47.2387295,22.0501591 49.7799159,22.1111803 L49.7799159,22.2606199 C47.2380963,22.3185277 45.2256641,24.3913795 45.2845553,26.8907569 L45.2845553,26.8932475 L45.2845553,40.0999723 C45.1940022,41.4113048 44.3169668,42.5433098 43.0555556,42.9766847" id="Stroke-3" stroke="#13AA52"></path>
                        <path d="M11.1111111,0.864422367 C15.8667327,0.291570561 27.4360013,-0.75450665 39.3978777,0.864422367" id="Stroke-5" stroke="#13AA52"></path>
                        <path d="M11.1111111,43.0555556 C11.1111111,43.0555556 26.0561744,44.8307735 39.3978777,43.0555556" id="Stroke-7" stroke="#13AA52"></path>
                        <path d="M11.1111111,2.77777778 C11.1111111,2.77777778 26.0561744,4.55237305 39.3978777,2.77777778" id="Stroke-9" stroke="#13AA52"></path>
                    </g>
                </g>
            </g>
        </g>
    </g>
</svg>