<?xml version="1.0" encoding="UTF-8"?>
<svg width="80px" height="56px" viewBox="0 0 80 56" version="1.1" xmlns="http://www.w3.org/2000/svg" xmlns:xlink="http://www.w3.org/1999/xlink">
    <!-- Generator: sketchtool 50.2 (55047) - http://www.bohemiancoding.com/sketch -->
    <title>7D76ABBF-025B-4B7C-8C7B-CD06523CD1A5</title>
    <desc>Created with sketchtool.</desc>
    <defs></defs>
    <g id="Page-1" stroke="none" stroke-width="1" fill="none" fill-rule="evenodd">
        <g id="1806-mdb-charts" transform="translate(-680.000000, -1040.000000)">
            <g id="Group-34" transform="translate(171.000000, 1006.000000)">
                <g id="2" transform="translate(404.000000, 20.000000)">
                    <g id="icon-action" transform="translate(105.000000, 0.000000)">
                        <g id="Outline_Icons_1_" stroke-linecap="round" stroke-linejoin="round" transform="translate(0.000000, 13.333333)" stroke-width="2">
                            <g id="Outline_Icons">
                                <g id="Group">
                                    <circle id="Oval" stroke="#116149" cx="40" cy="40" r="5"></circle>
                                    <path d="M43.5366667,36.4633333 L60.0366667,19.9666667" id="Shape" stroke="#13AA52"></path>
                                    <path d="M8.33333333,41.6666667 L15,41.6666667" id="Shape" stroke="#116149"></path>
                                    <path d="M71.6666667,41.6666667 L65,41.6666667" id="Shape" stroke="#116149"></path>
                                    <path d="M69.2533333,27.8833333 L63.0966667,30.4333333" id="Shape" stroke="#116149"></path>
                                    <path d="M52.1166667,10.7433333 L49.5666667,16.9033333" id="Shape" stroke="#116149"></path>
                                    <path d="M40,8.33333333 L40,15" id="Shape" stroke="#116149"></path>
                                    <path d="M27.8833333,10.7433333 L30.4333333,16.9033333" id="Shape" stroke="#116149"></path>
                                    <path d="M17.61,17.6066667 L22.3166667,22.3233333" id="Shape" stroke="#116149"></path>
                                    <path d="M10.7466667,27.8833333 L16.9,30.4333333" id="Shape" stroke="#116149"></path>
                                    <path d="M40,1.66666667 C18.8266667,1.66666667 1.66666667,18.83 1.66666667,40 L1.66666667,55 L78.3333333,55 L78.3333333,40 C78.3333333,18.83 61.1733333,1.66666667 40,1.66666667 Z" id="Shape" stroke="#116149"></path>
                                </g>
                            </g>
                        </g>
                        <g id="Invisible_Shape">
                            <rect id="Rectangle-path" x="0" y="0" width="80" height="80"></rect>
                        </g>
                    </g>
                </g>
            </g>
        </g>
    </g>
</svg>